<svg width="90" height="90" viewBox="0 0 90 90" fill="none" xmlns="http://www.w3.org/2000/svg">
<path d="M45 86.6667C68.0119 86.6667 86.6667 68.0119 86.6667 45C86.6667 21.9881 68.0119 3.33334 45 3.33334C21.9881 3.33334 3.33333 21.9881 3.33333 45C3.33333 68.0119 21.9881 86.6667 45 86.6667Z" fill="#FFC700" fill-opacity="0.2"/>
<path d="M45 20V45L61.6667 53.3333" fill="#FFC700" fill-opacity="0.2"/>
<path d="M45 20V45L61.6667 53.3333M86.6667 45C86.6667 68.0119 68.0119 86.6667 45 86.6667C21.9881 86.6667 3.33333 68.0119 3.33333 45C3.33333 21.9881 21.9881 3.33334 45 3.33334C68.0119 3.33334 86.6667 21.9881 86.6667 45Z" stroke="#FFC700" stroke-width="5" stroke-linecap="round" stroke-linejoin="round"/>
</svg>
