<svg width="100" height="100" viewBox="0 0 100 100" fill="none" xmlns="http://www.w3.org/2000/svg">
<path d="M74.1667 87.5C78.8338 87.5 81.1673 87.5 82.9499 86.5917C84.5179 85.7928 85.7928 84.518 86.5917 82.9499C87.5 81.1673 87.5 78.8338 87.5 74.1667V46.6667C87.5 41.9996 87.5 39.666 86.5917 37.8834C85.7928 36.3154 84.5179 35.0406 82.9499 34.2416C81.1673 33.3334 78.8338 33.3334 74.1667 33.3334L25.8333 33.3333C21.1662 33.3333 18.8327 33.3333 17.0501 34.2416C15.4821 35.0406 14.2072 36.3154 13.4083 37.8834C12.5 39.666 12.5 41.9996 12.5 46.6667L12.5 74.1667C12.5 78.8338 12.5 81.1673 13.4083 82.9499C14.2072 84.5179 15.4821 85.7928 17.0501 86.5917C18.8327 87.5 21.1662 87.5 25.8333 87.5H74.1667Z" fill="#FFC700" fill-opacity="0.2"/>
<path d="M70.8333 60.4167C70.8333 61.5673 69.9006 62.5 68.75 62.5C67.5994 62.5 66.6667 61.5673 66.6667 60.4167C66.6667 59.2661 67.5994 58.3333 68.75 58.3333C69.9006 58.3333 70.8333 59.2661 70.8333 60.4167Z" fill="#FFC700" fill-opacity="0.2"/>
<path d="M66.6667 33.3334V18.7527C66.6667 15.2872 66.6667 13.5544 65.9366 12.4895C65.2988 11.5591 64.311 10.9271 63.199 10.7379C61.9262 10.5213 60.3529 11.2474 57.2063 12.6997L20.2459 29.7583C17.4396 31.0535 16.0365 31.7011 15.0088 32.7055C14.1002 33.5934 13.4067 34.6773 12.9813 35.8743C12.5 37.2283 12.5 38.7737 12.5 41.8644V62.5M68.75 60.4167H68.7917M12.5 46.6667L12.5 74.1667C12.5 78.8338 12.5 81.1673 13.4083 82.9499C14.2072 84.5179 15.4821 85.7928 17.0501 86.5917C18.8327 87.5 21.1662 87.5 25.8333 87.5H74.1667C78.8338 87.5 81.1673 87.5 82.9499 86.5917C84.5179 85.7928 85.7928 84.5179 86.5917 82.9499C87.5 81.1673 87.5 78.8338 87.5 74.1667V46.6667C87.5 41.9996 87.5 39.666 86.5917 37.8834C85.7928 36.3154 84.5179 35.0406 82.9499 34.2416C81.1673 33.3334 78.8338 33.3334 74.1667 33.3334L25.8333 33.3333C21.1662 33.3333 18.8327 33.3333 17.0501 34.2416C15.4821 35.0406 14.2072 36.3154 13.4083 37.8834C12.5 39.666 12.5 41.9996 12.5 46.6667ZM70.8333 60.4167C70.8333 61.5673 69.9006 62.5 68.75 62.5C67.5994 62.5 66.6667 61.5673 66.6667 60.4167C66.6667 59.2661 67.5994 58.3333 68.75 58.3333C69.9006 58.3333 70.8333 59.2661 70.8333 60.4167Z" stroke="#FFC700" stroke-width="5" stroke-linecap="round" stroke-linejoin="round"/>
</svg>
