<svg width="100" height="100" viewBox="0 0 100 100" fill="none" xmlns="http://www.w3.org/2000/svg">
<path d="M31.25 29.1667C43.9065 29.1667 54.1667 25.4357 54.1667 20.8333C54.1667 16.231 43.9065 12.5 31.25 12.5C18.5935 12.5 8.33334 16.231 8.33334 20.8333C8.33334 25.4357 18.5935 29.1667 31.25 29.1667Z" fill="#FFC700" fill-opacity="0.2"/>
<path d="M68.75 54.1667C81.4065 54.1667 91.6667 50.4357 91.6667 45.8333C91.6667 41.231 81.4065 37.5 68.75 37.5C56.0935 37.5 45.8333 41.231 45.8333 45.8333C45.8333 50.4357 56.0935 54.1667 68.75 54.1667Z" fill="#FFC700" fill-opacity="0.2"/>
<path d="M45.8333 45.8333C45.8333 41.231 56.0935 37.5 68.75 37.5C81.4065 37.5 91.6667 41.231 91.6667 45.8333V79.1667C91.6667 83.769 81.4065 87.5 68.75 87.5C56.0935 87.5 45.8333 83.769 45.8333 79.1667V45.8333Z" fill="#FFC700" fill-opacity="0.2"/>
<path d="M31.25 12.5C18.5935 12.5 8.33334 16.231 8.33334 20.8333V70.8333C8.33334 75.4357 18.5935 79.1667 31.25 79.1667C36.7901 79.1667 41.8711 78.4518 45.8333 77.2619V45.8333C45.8333 43.2455 49.0771 40.9333 54.1667 39.4048V20.8333C54.1667 16.231 43.9065 12.5 31.25 12.5Z" fill="#FFC700" fill-opacity="0.2"/>
<path d="M54.1667 20.8333C54.1667 25.4357 43.9065 29.1667 31.25 29.1667C18.5935 29.1667 8.33334 25.4357 8.33334 20.8333M54.1667 20.8333C54.1667 16.231 43.9065 12.5 31.25 12.5C18.5935 12.5 8.33334 16.231 8.33334 20.8333M54.1667 20.8333V39.4048C49.0771 40.9333 45.8333 43.2455 45.8333 45.8333M8.33334 20.8333V70.8333C8.33334 75.4357 18.5935 79.1667 31.25 79.1667C36.7901 79.1667 41.8711 78.4518 45.8333 77.2619V45.8333M8.33334 37.5C8.33334 42.1024 18.5935 45.8333 31.25 45.8333C36.7901 45.8333 41.8711 45.1185 45.8333 43.9285M8.33334 54.1667C8.33334 58.769 18.5935 62.5 31.25 62.5C36.7901 62.5 41.8711 61.7851 45.8333 60.5952M91.6667 45.8333C91.6667 50.4357 81.4065 54.1667 68.75 54.1667C56.0935 54.1667 45.8333 50.4357 45.8333 45.8333M91.6667 45.8333C91.6667 41.231 81.4065 37.5 68.75 37.5C56.0935 37.5 45.8333 41.231 45.8333 45.8333M91.6667 45.8333V79.1667C91.6667 83.769 81.4065 87.5 68.75 87.5C56.0935 87.5 45.8333 83.769 45.8333 79.1667V45.8333M91.6667 62.5C91.6667 67.1024 81.4065 70.8333 68.75 70.8333C56.0935 70.8333 45.8333 67.1024 45.8333 62.5" stroke="#FFC700" stroke-width="5" stroke-linecap="round" stroke-linejoin="round"/>
</svg>
